<?xml version="1.0" encoding="UTF-8"?>
<svg xmlns="http://www.w3.org/2000/svg" version="1.1" width="300" height="300" viewBox="0 0 300 300"><rect x="0" y="0" width="300" height="300" fill="#ffffff"/><g transform="scale(12)"><g transform="translate(2,2)"><path fill-rule="evenodd" d="M8 0L8 4L12 4L12 5L11 5L11 6L10 6L10 5L8 5L8 7L9 7L9 10L11 10L11 11L9 11L9 13L8 13L8 11L7 11L7 10L8 10L8 9L7 9L7 8L4 8L4 9L3 9L3 10L2 10L2 11L1 11L1 12L0 12L0 13L4 13L4 12L5 12L5 13L8 13L8 14L10 14L10 15L8 15L8 17L9 17L9 18L10 18L10 19L11 19L11 20L12 20L12 21L18 21L18 20L19 20L19 21L21 21L21 19L20 19L20 20L19 20L19 18L21 18L21 14L20 14L20 13L21 13L21 11L20 11L20 10L21 10L21 8L17 8L17 9L19 9L19 10L16 10L16 8L15 8L15 9L14 9L14 11L13 11L13 12L12 12L12 15L11 15L11 13L10 13L10 12L11 12L11 11L12 11L12 10L13 10L13 9L12 9L12 8L13 8L13 6L12 6L12 5L13 5L13 4L12 4L12 3L9 3L9 1L10 1L10 2L11 2L11 1L12 1L12 2L13 2L13 0ZM9 6L9 7L10 7L10 6ZM11 6L11 7L12 7L12 6ZM0 8L0 9L2 9L2 8ZM10 8L10 9L11 9L11 8ZM4 9L4 10L3 10L3 11L2 11L2 12L4 12L4 10L5 10L5 11L6 11L6 12L7 12L7 11L6 11L6 10L7 10L7 9ZM16 11L16 13L15 13L15 12L14 12L14 13L15 13L15 14L17 14L17 15L18 15L18 16L19 16L19 17L20 17L20 16L19 16L19 15L20 15L20 14L19 14L19 12L18 12L18 14L17 14L17 11ZM18 14L18 15L19 15L19 14ZM10 15L10 16L9 16L9 17L10 17L10 18L12 18L12 20L15 20L15 18L17 18L17 19L16 19L16 20L18 20L18 17L17 17L17 16L14 16L14 15L13 15L13 16L12 16L12 17L11 17L11 15ZM13 16L13 17L12 17L12 18L14 18L14 16ZM8 19L8 21L10 21L10 20L9 20L9 19ZM0 0L0 7L7 7L7 0ZM1 1L1 6L6 6L6 1ZM2 2L2 5L5 5L5 2ZM14 0L14 7L21 7L21 0ZM15 1L15 6L20 6L20 1ZM16 2L16 5L19 5L19 2ZM0 14L0 21L7 21L7 14ZM1 15L1 20L6 20L6 15ZM2 16L2 19L5 19L5 16Z" fill="#000000"/></g></g></svg>
