<?xml version="1.0" encoding="UTF-8"?>
<svg xmlns="http://www.w3.org/2000/svg" version="1.1" width="300" height="300" viewBox="0 0 300 300"><rect x="0" y="0" width="300" height="300" fill="#ffffff"/><g transform="scale(12)"><g transform="translate(2,2)"><path fill-rule="evenodd" d="M8 0L8 1L9 1L9 0ZM10 0L10 2L8 2L8 5L9 5L9 6L8 6L8 7L9 7L9 6L10 6L10 7L11 7L11 8L8 8L8 9L7 9L7 8L6 8L6 9L4 9L4 8L0 8L0 9L2 9L2 11L0 11L0 12L1 12L1 13L4 13L4 12L5 12L5 13L7 13L7 12L8 12L8 14L10 14L10 15L9 15L9 17L8 17L8 21L9 21L9 17L10 17L10 16L11 16L11 15L13 15L13 16L12 16L12 17L13 17L13 18L12 18L12 19L11 19L11 18L10 18L10 19L11 19L11 20L10 20L10 21L11 21L11 20L12 20L12 19L13 19L13 21L14 21L14 20L15 20L15 21L16 21L16 20L17 20L17 21L20 21L20 20L19 20L19 19L18 19L18 18L17 18L17 16L16 16L16 15L15 15L15 14L17 14L17 15L18 15L18 16L19 16L19 18L20 18L20 17L21 17L21 14L19 14L19 13L18 13L18 12L19 12L19 11L20 11L20 12L21 12L21 10L17 10L17 11L18 11L18 12L16 12L16 11L13 11L13 12L12 12L12 10L14 10L14 8L13 8L13 5L12 5L12 4L13 4L13 3L12 3L12 1L13 1L13 0ZM10 2L10 4L9 4L9 5L11 5L11 4L12 4L12 3L11 3L11 2ZM11 6L11 7L12 7L12 6ZM16 8L16 9L19 9L19 8ZM20 8L20 9L21 9L21 8ZM3 9L3 10L4 10L4 11L2 11L2 12L4 12L4 11L5 11L5 10L4 10L4 9ZM6 9L6 10L7 10L7 11L6 11L6 12L7 12L7 11L9 11L9 12L10 12L10 13L12 13L12 14L13 14L13 13L14 13L14 12L13 12L13 13L12 13L12 12L10 12L10 11L9 11L9 9L8 9L8 10L7 10L7 9ZM17 13L17 14L18 14L18 13ZM14 15L14 16L15 16L15 17L16 17L16 16L15 16L15 15ZM13 18L13 19L15 19L15 20L16 20L16 19L17 19L17 20L18 20L18 19L17 19L17 18L16 18L16 19L15 19L15 18ZM0 0L0 7L7 7L7 0ZM1 1L1 6L6 6L6 1ZM2 2L2 5L5 5L5 2ZM14 0L14 7L21 7L21 0ZM15 1L15 6L20 6L20 1ZM16 2L16 5L19 5L19 2ZM0 14L0 21L7 21L7 14ZM1 15L1 20L6 20L6 15ZM2 16L2 19L5 19L5 16Z" fill="#000000"/></g></g></svg>
