<?xml version="1.0" encoding="UTF-8"?>
<svg xmlns="http://www.w3.org/2000/svg" version="1.1" width="300" height="300" viewBox="0 0 300 300"><rect x="0" y="0" width="300" height="300" fill="#ffffff"/><g transform="scale(12)"><g transform="translate(2,2)"><path fill-rule="evenodd" d="M9 0L9 2L8 2L8 3L9 3L9 4L10 4L10 5L11 5L11 4L12 4L12 7L11 7L11 6L10 6L10 7L9 7L9 6L8 6L8 8L4 8L4 9L3 9L3 8L0 8L0 10L1 10L1 9L3 9L3 11L0 11L0 13L3 13L3 11L4 11L4 13L7 13L7 12L5 12L5 10L4 10L4 9L8 9L8 11L10 11L10 10L9 10L9 9L12 9L12 8L13 8L13 10L12 10L12 11L13 11L13 10L14 10L14 9L15 9L15 8L13 8L13 4L12 4L12 3L13 3L13 2L12 2L12 1L13 1L13 0L11 0L11 1L10 1L10 0ZM10 2L10 4L11 4L11 2ZM10 7L10 8L11 8L11 7ZM18 8L18 9L16 9L16 11L14 11L14 12L16 12L16 13L18 13L18 14L17 14L17 16L16 16L16 15L14 15L14 16L13 16L13 15L12 15L12 13L13 13L13 14L14 14L14 13L13 13L13 12L12 12L12 13L11 13L11 12L8 12L8 17L10 17L10 15L11 15L11 18L12 18L12 19L11 19L11 20L12 20L12 21L14 21L14 20L12 20L12 19L13 19L13 18L12 18L12 16L13 16L13 17L15 17L15 16L16 16L16 18L14 18L14 19L16 19L16 18L17 18L17 19L18 19L18 20L17 20L17 21L18 21L18 20L20 20L20 21L21 21L21 18L20 18L20 17L21 17L21 15L20 15L20 16L18 16L18 14L21 14L21 10L20 10L20 9L19 9L19 8ZM6 10L6 11L7 11L7 10ZM17 10L17 11L16 11L16 12L17 12L17 11L19 11L19 12L18 12L18 13L20 13L20 11L19 11L19 10ZM10 13L10 14L11 14L11 13ZM18 17L18 19L20 19L20 18L19 18L19 17ZM8 18L8 21L9 21L9 19L10 19L10 18ZM15 20L15 21L16 21L16 20ZM0 0L0 7L7 7L7 0ZM1 1L1 6L6 6L6 1ZM2 2L2 5L5 5L5 2ZM14 0L14 7L21 7L21 0ZM15 1L15 6L20 6L20 1ZM16 2L16 5L19 5L19 2ZM0 14L0 21L7 21L7 14ZM1 15L1 20L6 20L6 15ZM2 16L2 19L5 19L5 16Z" fill="#000000"/></g></g></svg>
