<svg xmlns="http://www.w3.org/2000/svg" width="100" height="100" viewBox="0 0 100 100">
  <defs>
    <pattern id="circuit-pattern" x="0" y="0" width="50" height="50" patternUnits="userSpaceOnUse">
      <!-- Circuit lines -->
      <path d="M 0 25 L 20 25 L 20 10 L 30 10 L 30 25 L 50 25" stroke="#6366f1" stroke-width="1.5" fill="none" opacity="0.6"/>
      <path d="M 25 0 L 25 15 L 40 15 L 40 35 L 25 35 L 25 50" stroke="#6366f1" stroke-width="1.5" fill="none" opacity="0.6"/>
      <path d="M 10 40 L 10 45 L 45 45" stroke="#6366f1" stroke-width="1" fill="none" opacity="0.4"/>
      <path d="M 5 5 L 15 5 L 15 15" stroke="#6366f1" stroke-width="1" fill="none" opacity="0.4"/>
      
      <!-- Circuit nodes -->
      <circle cx="20" cy="25" r="3" fill="#6366f1" opacity="0.8"/>
      <circle cx="30" cy="10" r="2" fill="#8b5cf6" opacity="0.7"/>
      <circle cx="25" cy="35" r="2.5" fill="#6366f1" opacity="0.8"/>
      <circle cx="40" cy="15" r="2" fill="#8b5cf6" opacity="0.7"/>
      <circle cx="10" cy="45" r="1.5" fill="#6366f1" opacity="0.6"/>
      <circle cx="45" cy="45" r="1.5" fill="#8b5cf6" opacity="0.6"/>
      <circle cx="15" cy="5" r="2" fill="#6366f1" opacity="0.5"/>
    </pattern>
  </defs>
  <rect width="100" height="100" fill="url(#circuit-pattern)"/>
</svg>
